<svg width="566" height="414" viewBox="0 0 566 414" fill="none" xmlns="http://www.w3.org/2000/svg">
<g clip-path="url(#clip0_613_9522)">
<path d="M440.296 32.2641C440.296 32.2641 388.758 -12.9872 318.96 3.69509C249.163 20.3774 218.073 78.7653 176.943 118.175C155.405 138.811 124.466 145.589 99.2134 161.158C18.4631 210.946 25.8103 329.76 84.9681 376.642C136.18 417.233 201.787 423.672 288.402 398.255C375.016 372.851 436.868 357.949 492.924 278.205C548.979 198.462 503.59 93.437 440.296 32.2506V32.2641Z" fill="#10AC8C"/>
<path opacity="0.7" d="M440.296 32.2641C440.296 32.2641 388.758 -12.9872 318.96 3.69509C249.163 20.3774 218.073 78.7653 176.943 118.175C155.405 138.811 124.466 145.589 99.2134 161.158C18.4631 210.946 25.8103 329.76 84.9681 376.642C136.18 417.233 201.787 423.672 288.402 398.255C375.016 372.851 436.868 357.949 492.924 278.205C548.979 198.462 503.59 93.437 440.296 32.2506V32.2641Z" fill="white"/>
<path d="M543.306 413.321L408.35 225.632L277.014 372.675L197.474 250.737L164.439 286.193L134.071 318.797L90.1791 305.728L19.8101 413.321H543.306Z" stroke="#1D2A38" stroke-miterlimit="10"/>
<path d="M377.764 260.029L400.146 280.474L414.609 263.968L427.52 273.247L434.568 262.325" stroke="#1D2A38" stroke-miterlimit="10"/>
<path d="M170.725 279.618L188.277 293.543L200.671 286.315L209.964 296.11L217.189 281.167" stroke="#1D2A38" stroke-miterlimit="10"/>
<path d="M347.518 66.7562C345.273 69.1879 343.641 72.1902 342.865 75.5185C340.743 72.6792 337.355 70.8317 333.532 70.8317C331.45 70.8317 329.504 71.3751 327.817 72.3396C326.783 60.7653 317.041 51.6906 305.164 51.6906C294.252 51.6906 285.136 59.366 282.932 69.6226C280.265 67.0008 276.605 65.3706 272.551 65.3706C268.795 65.3706 265.367 66.7698 262.768 69.0657" stroke="#1D2A38" stroke-miterlimit="10"/>
<path d="M409.479 42.8196C407.955 42.5887 406.404 42.4664 404.812 42.4664C390.417 42.4664 378.403 52.5872 375.505 66.0906C371.981 62.6264 367.165 60.4936 361.832 60.4936C358.158 60.4936 354.716 61.5125 351.791 63.2785" stroke="#1D2A38" stroke-miterlimit="10"/>
<path d="M426.323 51.5547C424.214 49.3811 421.779 47.5336 419.099 46.08" stroke="#1D2A38" stroke-miterlimit="10"/>
<path d="M415.534 80.6808H470.936C469.222 77.8687 466.147 75.994 462.61 75.994C460.378 75.994 458.337 76.7411 456.691 78.0045C454.609 72.0136 448.909 67.6936 442.201 67.6936C439.466 67.6936 436.895 68.4136 434.663 69.677C434.16 64.0936 432.119 58.9449 428.963 54.6657" stroke="#1D2A38" stroke-miterlimit="10"/>
<path d="M260.455 71.6332C258.754 74.0377 257.761 76.9721 257.761 80.1374C257.761 80.3276 257.788 80.5042 257.788 80.6808H404.622" stroke="#1D2A38" stroke-miterlimit="10"/>
<path d="M457.059 90.5434C454.732 88.56 451.712 87.3645 448.405 87.3645C442.011 87.3645 436.664 91.8747 435.371 97.8792C433.806 96.3441 431.657 95.3932 429.289 95.3932C425.18 95.3932 421.752 98.246 420.854 102.077C419.915 100.814 418.405 99.9985 416.704 99.9985C415.779 99.9985 414.908 100.243 414.16 100.664C413.697 95.5155 409.37 91.4807 404.091 91.4807C399.234 91.4807 395.18 94.9041 394.2 99.4551C393.016 98.2868 391.384 97.5668 389.588 97.5668C385.955 97.5668 383.002 100.515 383.002 104.142C383.002 104.223 383.002 104.305 383.002 104.386H477.794C477.032 103.137 475.658 102.308 474.093 102.308C473.1 102.308 472.188 102.648 471.467 103.205C470.542 100.542 468.011 98.6264 465.018 98.6264C463.793 98.6264 462.664 98.9524 461.671 99.5094C461.576 98.4906 461.372 97.5124 461.072 96.5887" stroke="#1D2A38" stroke-miterlimit="10"/>
<path d="M535.659 225.781C534.666 225.781 533.754 226.121 533.033 226.678C532.108 224.015 529.577 222.1 526.584 222.1C525.359 222.1 524.23 222.426 523.237 222.983C522.625 216.19 516.924 210.878 509.958 210.878C503.563 210.878 498.216 215.389 496.923 221.393C495.359 219.858 493.209 218.907 490.842 218.907C486.733 218.907 483.304 221.76 482.406 225.591C481.467 224.328 479.957 223.512 478.256 223.512C477.331 223.512 476.46 223.757 475.712 224.178C475.249 219.029 470.923 214.995 465.644 214.995C460.786 214.995 456.732 218.418 455.752 222.969C454.569 221.801 452.936 221.081 451.14 221.081C447.507 221.081 444.555 224.029 444.555 227.656C444.555 227.737 444.555 227.819 444.555 227.9H539.346C538.584 226.651 537.21 225.822 535.645 225.822L535.659 225.781Z" stroke="#1D2A38" stroke-miterlimit="10"/>
<path d="M54.6406 75.7494V93.0973H69.4029V403.635H227.516V93.0973H242.278V75.7494H54.6406ZM221.434 210.199H75.4983V105.242H221.447V210.199H221.434Z" fill="#7D7D7D" stroke="#1D2A38" stroke-linecap="round" stroke-linejoin="round"/>
<path d="M227.529 291.315H69.4165V403.621H227.529V291.315Z" fill="#1D2A38" stroke="#1D2A38" stroke-linecap="round" stroke-linejoin="round"/>
<path d="M227.529 93.0974H69.4165V97.9743H227.434L227.529 93.0974Z" fill="#1D2A38" stroke="#1D2A38" stroke-linecap="round" stroke-linejoin="round"/>
<path d="M251.734 403.703H45.2119V413.307H251.734V403.703Z" fill="#1D2A38" stroke="#1D2A38" stroke-linecap="round" stroke-linejoin="round"/>
<path d="M508.284 291.749H160.48V307.128H508.284V291.749Z" fill="#10AC8C" stroke="#1D2A38" stroke-linecap="round" stroke-linejoin="round"/>
<path d="M264.85 291.749H246.496L240.523 307.141H258.877L264.85 291.749Z" fill="#1D2A38" stroke="#1D2A38" stroke-miterlimit="10"/>
<path d="M302.334 291.749H283.993L278.021 307.141H296.361L302.334 291.749Z" fill="#1D2A38" stroke="#1D2A38" stroke-miterlimit="10"/>
<path d="M165.542 307.141H183.882L189.855 291.749H171.514L165.542 307.141Z" fill="#1D2A38" stroke="#1D2A38" stroke-miterlimit="10"/>
<path d="M227.353 291.749H208.998L203.039 307.141H221.38L227.353 291.749Z" fill="#1D2A38" stroke="#1D2A38" stroke-miterlimit="10"/>
<path d="M339.832 291.749H321.477L315.518 307.141H333.859L339.832 291.749Z" fill="#1D2A38" stroke="#1D2A38" stroke-miterlimit="10"/>
<path d="M452.311 291.749H433.956L427.997 307.141H446.338L452.311 291.749Z" fill="#1D2A38" stroke="#1D2A38" stroke-miterlimit="10"/>
<path d="M489.808 291.749H471.453L465.48 307.141H483.835L489.808 291.749Z" fill="#1D2A38" stroke="#1D2A38" stroke-miterlimit="10"/>
<path d="M414.813 291.749H396.472L390.5 307.141H408.854L414.813 291.749Z" fill="#1D2A38" stroke="#1D2A38" stroke-miterlimit="10"/>
<path d="M377.329 291.749H358.975L353.002 307.141H371.356L377.329 291.749Z" fill="#1D2A38" stroke="#1D2A38" stroke-miterlimit="10"/>
<path d="M111.295 274.008H181.896C190.29 274.008 197.093 280.814 197.093 289.182V413.321H96.084V289.182C96.084 280.8 102.9 274.008 111.282 274.008H111.295Z" fill="#10AC8C" stroke="#1D2A38" stroke-linecap="round" stroke-linejoin="round"/>
<path d="M151 189H145V400H151V189Z" fill="white" stroke="#1D2A38" stroke-linecap="round" stroke-linejoin="round"/>
<path d="M135.894 380.649H160.344C164.072 380.649 167.106 383.679 167.106 387.401V413.321H129.132V387.401C129.132 383.679 132.166 380.649 135.894 380.649Z" fill="#1D2A38"/>
<path d="M184.685 185.597H110.411C108.322 185.597 106.628 187.288 106.628 189.374V254.663C106.628 256.748 108.322 258.439 110.411 258.439H184.685C186.774 258.439 188.467 256.748 188.467 254.663V189.374C188.467 187.288 186.774 185.597 184.685 185.597Z" fill="white" stroke="#1D2A38" stroke-linecap="round" stroke-linejoin="round"/>
<path d="M0 413.321H566" stroke="#1D2A38" stroke-miterlimit="10"/>
<path d="M175.611 213.199L175.334 223.384H172.735L172.45 213.199H175.611ZM174.034 227.929C173.565 227.929 173.163 227.763 172.827 227.432C172.491 227.096 172.325 226.693 172.33 226.224C172.325 225.76 172.491 225.363 172.827 225.031C173.163 224.7 173.565 224.534 174.034 224.534C174.484 224.534 174.879 224.7 175.22 225.031C175.561 225.363 175.734 225.76 175.739 226.224C175.734 226.537 175.651 226.823 175.49 227.084C175.334 227.339 175.128 227.545 174.872 227.702C174.617 227.853 174.337 227.929 174.034 227.929Z" fill="#10AC8C"/>
<path d="M169.842 219.946L167.072 220.116C167.025 219.88 166.923 219.667 166.767 219.477C166.61 219.283 166.404 219.129 166.149 219.016C165.898 218.897 165.597 218.838 165.247 218.838C164.778 218.838 164.383 218.938 164.061 219.136C163.739 219.331 163.578 219.591 163.578 219.918C163.578 220.178 163.682 220.398 163.89 220.578C164.099 220.758 164.456 220.902 164.963 221.011L166.937 221.409C167.998 221.627 168.788 221.977 169.309 222.46C169.83 222.943 170.09 223.578 170.09 224.364C170.09 225.079 169.88 225.706 169.458 226.246C169.042 226.786 168.469 227.207 167.74 227.51C167.015 227.808 166.179 227.957 165.233 227.957C163.788 227.957 162.638 227.657 161.781 227.055C160.929 226.449 160.429 225.625 160.282 224.584L163.258 224.428C163.348 224.868 163.566 225.204 163.911 225.436C164.257 225.663 164.7 225.777 165.24 225.777C165.77 225.777 166.196 225.675 166.518 225.472C166.845 225.263 167.01 224.996 167.015 224.669C167.01 224.394 166.894 224.17 166.667 223.994C166.44 223.814 166.09 223.677 165.616 223.582L163.727 223.206C162.661 222.993 161.868 222.624 161.348 222.098C160.831 221.572 160.573 220.902 160.573 220.088C160.573 219.387 160.763 218.784 161.142 218.277C161.525 217.77 162.063 217.38 162.754 217.105C163.45 216.831 164.264 216.693 165.197 216.693C166.575 216.693 167.659 216.984 168.45 217.567C169.245 218.149 169.709 218.942 169.842 219.946Z" fill="#10AC8C"/>
<path d="M148.109 231.835V216.835H151.092V218.668H151.227C151.359 218.374 151.551 218.076 151.802 217.773C152.058 217.465 152.389 217.209 152.796 217.006C153.208 216.797 153.72 216.693 154.33 216.693C155.126 216.693 155.86 216.902 156.532 217.318C157.205 217.73 157.742 218.353 158.144 219.186C158.547 220.015 158.748 221.054 158.748 222.304C158.748 223.521 158.552 224.548 158.159 225.386C157.77 226.22 157.24 226.852 156.568 227.283C155.9 227.709 155.152 227.922 154.323 227.922C153.736 227.922 153.237 227.825 152.825 227.631C152.418 227.437 152.084 227.193 151.823 226.899C151.563 226.601 151.364 226.3 151.227 225.997H151.134V231.835H148.109ZM151.071 222.29C151.071 222.938 151.16 223.504 151.34 223.987C151.52 224.47 151.781 224.847 152.122 225.116C152.463 225.382 152.877 225.514 153.365 225.514C153.857 225.514 154.274 225.379 154.615 225.109C154.955 224.835 155.214 224.456 155.389 223.973C155.569 223.485 155.659 222.924 155.659 222.29C155.659 221.66 155.571 221.106 155.396 220.628C155.221 220.15 154.963 219.776 154.622 219.506C154.281 219.236 153.862 219.101 153.365 219.101C152.872 219.101 152.455 219.231 152.115 219.491C151.778 219.752 151.52 220.121 151.34 220.599C151.16 221.078 151.071 221.641 151.071 222.29Z" fill="#10AC8C"/>
<path d="M140.772 227.957C139.669 227.957 138.715 227.723 137.91 227.254C137.11 226.781 136.492 226.123 136.056 225.28C135.621 224.432 135.403 223.45 135.403 222.332C135.403 221.206 135.621 220.221 136.056 219.378C136.492 218.53 137.11 217.872 137.91 217.403C138.715 216.93 139.669 216.693 140.772 216.693C141.875 216.693 142.827 216.93 143.627 217.403C144.432 217.872 145.052 218.53 145.488 219.378C145.924 220.221 146.141 221.206 146.141 222.332C146.141 223.45 145.924 224.432 145.488 225.28C145.052 226.123 144.432 226.781 143.627 227.254C142.827 227.723 141.875 227.957 140.772 227.957ZM140.786 225.614C141.288 225.614 141.707 225.472 142.043 225.188C142.38 224.899 142.633 224.506 142.803 224.009C142.979 223.511 143.066 222.946 143.066 222.311C143.066 221.677 142.979 221.111 142.803 220.614C142.633 220.116 142.38 219.723 142.043 219.435C141.707 219.146 141.288 219.001 140.786 219.001C140.28 219.001 139.854 219.146 139.508 219.435C139.167 219.723 138.909 220.116 138.734 220.614C138.563 221.111 138.478 221.677 138.478 222.311C138.478 222.946 138.563 223.511 138.734 224.009C138.909 224.506 139.167 224.899 139.508 225.188C139.854 225.472 140.28 225.614 140.786 225.614Z" fill="#10AC8C"/>
<path d="M133.622 220.472C133.622 222.058 133.321 223.407 132.72 224.52C132.124 225.633 131.309 226.482 130.277 227.07C129.25 227.652 128.094 227.943 126.811 227.943C125.518 227.943 124.358 227.65 123.331 227.063C122.304 226.475 121.491 225.625 120.895 224.513C120.298 223.4 120 222.053 120 220.472C120 218.885 120.298 217.536 120.895 216.423C121.491 215.311 122.304 214.463 123.331 213.881C124.358 213.294 125.518 213 126.811 213C128.094 213 129.25 213.294 130.277 213.881C131.309 214.463 132.124 215.311 132.72 216.423C133.321 217.536 133.622 218.885 133.622 220.472ZM130.504 220.472C130.504 219.444 130.35 218.578 130.043 217.872C129.74 217.167 129.311 216.632 128.757 216.267C128.203 215.902 127.554 215.72 126.811 215.72C126.068 215.72 125.419 215.902 124.865 216.267C124.311 216.632 123.88 217.167 123.572 217.872C123.269 218.578 123.118 219.444 123.118 220.472C123.118 221.499 123.269 222.366 123.572 223.071C123.88 223.777 124.311 224.312 124.865 224.676C125.419 225.041 126.068 225.223 126.811 225.223C127.554 225.223 128.203 225.041 128.757 224.676C129.311 224.312 129.74 223.777 130.043 223.071C130.35 222.366 130.504 221.499 130.504 220.472Z" fill="#10AC8C"/>
</g>
<defs>
<clipPath id="clip0_613_9522">
<rect width="566" height="414" fill="white"/>
</clipPath>
</defs>
</svg>
